<svg xmlns="http://www.w3.org/2000/svg" viewBox="0 0 1200 800"><defs><filter id="s"><feDropShadow dx="14" dy="18" stdDeviation="0" flood-color="#050505"/></filter><pattern id="p" width="36" height="36" patternUnits="userSpaceOnUse"><path d="M0 0h36v36H0z" fill="none" stroke="#050505" stroke-width="3" opacity=".14"/></pattern></defs><rect width="1200" height="800" fill="#dfff00"/><rect width="1200" height="800" fill="url(#p)"/><path d="M72 180c240 140 420 90 620-5 180-86 310-40 430 45" fill="none" stroke="#ff2bd6" stroke-width="38" stroke-linecap="round" opacity=".58"/><g filter="url(#s)" transform="rotate(3 610 430)"><path d="M165 465c130-9 256-44 372-128 42-31 89-49 140-49h162c73 0 118 36 152 92 31 50 78 77 147 91 38 8 61 42 52 82-10 47-59 78-124 78H226c-74 0-130-28-140-73-9-44 25-87 79-93z" fill="#ffffff" stroke="#050505" stroke-width="18"/><path d="M538 340h305c42 0 86 29 110 73l-298 30c-80 8-127-33-117-103z" fill="#11131a" stroke="#050505" stroke-width="16"/><path d="M260 614h820" stroke="#050505" stroke-width="36" stroke-linecap="round"/><path d="M510 397h250M486 445h236M460 492h210" stroke="#050505" stroke-width="13" stroke-linecap="round"/><circle cx="895" cy="476" r="25" fill="#00d9ff" stroke="#050505" stroke-width="12"/></g><text x="70" y="735" font-family="Arial Black,Arial" font-size="58" fill="#050505">BLACK-WHITE DAILY LOW</text></svg>